<mxfile host="app.diagrams.net" modified="2023-05-26T12:43:00.359Z" agent="Mozilla/5.0 (Macintosh; Intel Mac OS X 10_15_7) AppleWebKit/537.36 (KHTML, like Gecko) Chrome/113.0.0.0 Safari/537.36" etag="DoVH3IXruu31KiiIDIFE" version="21.3.3" type="device" pages="2">
  <diagram name="RFN1" id="alWDBipzFA0aN935PjXP">
    <mxGraphModel dx="1614" dy="450" grid="1" gridSize="10" guides="1" tooltips="1" connect="1" arrows="1" fold="1" page="1" pageScale="1" pageWidth="827" pageHeight="1169" math="0" shadow="0">
      <root>
        <mxCell id="0" />
        <mxCell id="1" parent="0" />
        <mxCell id="7LNxAaKJ1uwpZ43bIjLh-2" value="&lt;h1&gt;&lt;br&gt;&lt;/h1&gt;" style="text;html=1;strokeColor=none;fillColor=none;spacing=5;spacingTop=-20;whiteSpace=wrap;overflow=hidden;rounded=0;" parent="1" vertex="1">
          <mxGeometry x="90" y="40" width="190" height="120" as="geometry" />
        </mxCell>
        <mxCell id="7LNxAaKJ1uwpZ43bIjLh-3" value="Sist. Biblioteca" style="shape=umlFrame;whiteSpace=wrap;html=1;pointerEvents=0;" parent="1" vertex="1">
          <mxGeometry x="50" y="130" width="450" height="320" as="geometry" />
        </mxCell>
        <mxCell id="7LNxAaKJ1uwpZ43bIjLh-4" value="Bibliotecario" style="shape=umlActor;verticalLabelPosition=bottom;verticalAlign=top;html=1;" parent="1" vertex="1">
          <mxGeometry x="-30" y="270" width="30" height="60" as="geometry" />
        </mxCell>
        <mxCell id="7LNxAaKJ1uwpZ43bIjLh-13" value="" style="endArrow=none;html=1;rounded=0;" parent="1" edge="1">
          <mxGeometry width="50" height="50" relative="1" as="geometry">
            <mxPoint x="-110" y="310" as="sourcePoint" />
            <mxPoint x="-50" y="310" as="targetPoint" />
          </mxGeometry>
        </mxCell>
        <mxCell id="7LNxAaKJ1uwpZ43bIjLh-14" value="Socio" style="shape=umlActor;verticalLabelPosition=bottom;verticalAlign=top;html=1;" parent="1" vertex="1">
          <mxGeometry x="-170" y="270" width="30" height="60" as="geometry" />
        </mxCell>
        <mxCell id="7LNxAaKJ1uwpZ43bIjLh-15" value="CU 001 - Gestionar Préstamo" style="ellipse;whiteSpace=wrap;html=1;" parent="1" vertex="1">
          <mxGeometry x="80" y="190" width="120" height="80" as="geometry" />
        </mxCell>
        <mxCell id="7LNxAaKJ1uwpZ43bIjLh-16" value="" style="endArrow=none;html=1;rounded=0;" parent="1" edge="1">
          <mxGeometry width="50" height="50" relative="1" as="geometry">
            <mxPoint x="10" y="290" as="sourcePoint" />
            <mxPoint x="70" y="270" as="targetPoint" />
          </mxGeometry>
        </mxCell>
        <mxCell id="7LNxAaKJ1uwpZ43bIjLh-26" value="CU 003 - Reservar Ejemplar" style="ellipse;whiteSpace=wrap;html=1;" parent="1" vertex="1">
          <mxGeometry x="80" y="330" width="120" height="80" as="geometry" />
        </mxCell>
        <mxCell id="7LNxAaKJ1uwpZ43bIjLh-27" value="" style="endArrow=none;html=1;rounded=0;" parent="1" edge="1">
          <mxGeometry width="50" height="50" relative="1" as="geometry">
            <mxPoint x="10" y="310" as="sourcePoint" />
            <mxPoint x="70" y="350" as="targetPoint" />
          </mxGeometry>
        </mxCell>
        <mxCell id="oDADvb3UHwLigmZZRw7w-1" value="" style="endArrow=classic;html=1;rounded=0;entryX=0;entryY=0.5;entryDx=0;entryDy=0;" edge="1" parent="1" target="oDADvb3UHwLigmZZRw7w-2">
          <mxGeometry width="50" height="50" relative="1" as="geometry">
            <mxPoint x="210" y="220" as="sourcePoint" />
            <mxPoint x="260" y="170" as="targetPoint" />
          </mxGeometry>
        </mxCell>
        <mxCell id="oDADvb3UHwLigmZZRw7w-2" value="CU 004 - Seleccionar Ejemplares" style="ellipse;whiteSpace=wrap;html=1;" vertex="1" parent="1">
          <mxGeometry x="294" y="180" width="120" height="80" as="geometry" />
        </mxCell>
        <mxCell id="oDADvb3UHwLigmZZRw7w-3" value="include" style="text;html=1;align=center;verticalAlign=middle;resizable=0;points=[];autosize=1;strokeColor=none;fillColor=none;" vertex="1" parent="1">
          <mxGeometry x="220" y="190" width="60" height="30" as="geometry" />
        </mxCell>
      </root>
    </mxGraphModel>
  </diagram>
  <diagram name="RFN2" id="wHJxgzCudT09oeCbJsFZ">
    <mxGraphModel dx="984" dy="505" grid="1" gridSize="10" guides="1" tooltips="1" connect="1" arrows="1" fold="1" page="1" pageScale="1" pageWidth="827" pageHeight="1169" math="0" shadow="0">
      <root>
        <mxCell id="U8apNXJn8xlT9vHnQ5xH-0" />
        <mxCell id="U8apNXJn8xlT9vHnQ5xH-1" parent="U8apNXJn8xlT9vHnQ5xH-0" />
        <mxCell id="U8apNXJn8xlT9vHnQ5xH-2" value="&lt;h1&gt;&lt;br&gt;&lt;/h1&gt;" style="text;html=1;strokeColor=none;fillColor=none;spacing=5;spacingTop=-20;whiteSpace=wrap;overflow=hidden;rounded=0;" vertex="1" parent="U8apNXJn8xlT9vHnQ5xH-1">
          <mxGeometry x="90" y="40" width="190" height="120" as="geometry" />
        </mxCell>
        <mxCell id="U8apNXJn8xlT9vHnQ5xH-3" value="Sist. Biblioteca" style="shape=umlFrame;whiteSpace=wrap;html=1;pointerEvents=0;" vertex="1" parent="U8apNXJn8xlT9vHnQ5xH-1">
          <mxGeometry x="260" y="130" width="240" height="380" as="geometry" />
        </mxCell>
        <mxCell id="U8apNXJn8xlT9vHnQ5xH-5" value="Administrativo" style="shape=umlActor;verticalLabelPosition=bottom;verticalAlign=top;html=1;" vertex="1" parent="U8apNXJn8xlT9vHnQ5xH-1">
          <mxGeometry x="540" y="290" width="30" height="60" as="geometry" />
        </mxCell>
        <mxCell id="U8apNXJn8xlT9vHnQ5xH-6" value="CU 002 - Asignar Sanción Económica" style="ellipse;whiteSpace=wrap;html=1;" vertex="1" parent="U8apNXJn8xlT9vHnQ5xH-1">
          <mxGeometry x="310" y="270" width="120" height="80" as="geometry" />
        </mxCell>
        <mxCell id="U8apNXJn8xlT9vHnQ5xH-7" value="" style="endArrow=none;html=1;rounded=0;exitX=1;exitY=0.5;exitDx=0;exitDy=0;entryX=0;entryY=0.3333333333333333;entryDx=0;entryDy=0;entryPerimeter=0;" edge="1" parent="U8apNXJn8xlT9vHnQ5xH-1" source="U8apNXJn8xlT9vHnQ5xH-6" target="U8apNXJn8xlT9vHnQ5xH-5">
          <mxGeometry width="50" height="50" relative="1" as="geometry">
            <mxPoint x="640" y="340" as="sourcePoint" />
            <mxPoint x="730" y="340" as="targetPoint" />
          </mxGeometry>
        </mxCell>
      </root>
    </mxGraphModel>
  </diagram>
</mxfile>
